<svg width="482" height="120" viewBox="0 0 482 120" fill="none" xmlns="http://www.w3.org/2000/svg">
<path d="M477 1H3C1.34315 1 0 1.53364 0 2.19192V117.808C0 118.466 1.34315 119 3 119H477C478.657 119 480 118.466 480 117.808V2.19192C480 1.53364 478.657 1 477 1Z" fill="url(#paint0_linear_857_6739)"/>
<path d="M215.143 45.7626H216.251C216.235 44.7261 215.434 44.0063 214.216 44.0063C213.018 44.0063 212.139 44.7125 212.144 45.771C212.144 46.6307 212.71 47.1231 213.634 47.3595L214.23 47.5189C214.826 47.6724 215.157 47.8551 215.159 48.2477C215.159 48.6746 214.777 48.9649 214.19 48.9649C213.589 48.9649 213.157 48.6688 213.119 48.0851H212C212.029 49.3458 212.876 49.9982 214.203 49.9982C215.53 49.9982 216.323 49.318 216.326 48.249C216.323 47.2773 215.637 46.7629 214.685 46.5355L214.194 46.4105C213.719 46.2938 213.321 46.106 213.329 45.6875C213.329 45.3117 213.641 45.0357 214.207 45.0357C214.762 45.037 215.101 45.3046 215.143 45.7626ZM218.357 49.9159H222.053V48.8995H219.514V47.5079H221.853V46.4914H219.514V45.1025H222.042V44.086H218.357V49.9159ZM224.215 49.9159H227.716V48.8995H225.372V44.086H224.217L224.215 49.9159ZM229.735 49.9159H233.431V48.8995H230.891V47.5079H233.23V46.4914H230.891V45.1025H233.42V44.086H229.734L229.735 49.9159ZM240.418 46.1274C240.361 45.5133 240.08 44.9476 239.637 44.5513C239.193 44.155 238.621 43.9596 238.044 44.007C236.599 44.007 235.496 45.0941 235.496 47.0013C235.496 48.9085 236.581 49.9956 238.044 49.9956C238.611 50.0322 239.17 49.8399 239.61 49.4569C240.05 49.0739 240.338 48.5284 240.418 47.929L239.249 47.9232C239.201 48.2148 239.053 48.4769 238.834 48.6585C238.614 48.8401 238.339 48.9281 238.062 48.9053C237.232 48.9053 236.669 48.2477 236.669 47.0013C236.669 45.7885 237.224 45.0966 238.071 45.0966C238.354 45.0751 238.634 45.1699 238.853 45.3617C239.072 45.5534 239.214 45.8275 239.249 46.1274H240.418ZM242.292 45.1025H243.967V49.9159H245.109V45.1025H246.784V44.086H242.292V45.1025ZM251.773 49.9159H252.928V47.5079H255.153V46.4914H252.928V45.1025H255.393V44.086H251.772L251.773 49.9159ZM258.58 44.0854H257.426V49.9159H258.58V44.0854ZM260.785 49.9159H264.286V48.8995H261.941V44.086H260.786L260.785 49.9159ZM266.305 49.9159H270V48.8995H267.46V47.5079H269.799V46.4914H267.46V45.1025H269.988V44.086H266.303L266.305 49.9159Z" fill="white"/>
<path d="M278.172 36H203.828C202.818 36 202 36.7921 202 37.7692V57.2308C202 58.2079 202.818 59 203.828 59H278.172C279.182 59 280 58.2079 280 57.2308V37.7692C280 36.7921 279.182 36 278.172 36Z" stroke="white" stroke-width="2"/>
<path d="M205.568 76.9714C205.932 76.9679 206.291 76.8877 206.622 76.736C206.954 76.5842 207.249 76.3643 207.489 76.0907C207.73 75.817 207.91 75.4957 208.018 75.1478C208.126 74.7998 208.159 74.4331 208.116 74.0714C208.116 72.3144 207.091 71.1564 205.568 71.1564C204.045 71.1564 203.019 72.3144 203.019 74.0714C202.975 74.4331 203.008 74.8 203.116 75.148C203.224 75.496 203.404 75.8174 203.645 76.091C203.885 76.3647 204.181 76.5846 204.512 76.7363C204.844 76.8879 205.203 76.9681 205.568 76.9714ZM205.568 76.1954C204.41 76.1954 203.883 75.1954 203.883 74.0714C203.883 72.9474 204.41 71.9334 205.568 71.9334C206.726 71.9334 207.252 72.9434 207.252 74.0714C207.252 75.1994 206.72 76.1954 205.568 76.1954ZM209.436 76.8544H210.3V73.2954C210.301 73.1139 210.339 72.9346 210.412 72.7685C210.485 72.6024 210.592 72.453 210.725 72.3295C210.858 72.206 211.015 72.1111 211.186 72.0506C211.357 71.99 211.538 71.9651 211.72 71.9774C211.897 71.9788 212.074 71.9986 212.248 72.0364V71.1564C212.148 71.1494 211.922 71.1424 211.793 71.1424C211.482 71.1319 211.176 71.2158 210.915 71.3831C210.653 71.5505 210.449 71.7933 210.329 72.0794H210.27V71.2294H209.436V76.8544ZM218.295 76.9724C218.634 76.9868 218.97 76.9014 219.262 76.7269C219.553 76.5524 219.787 76.2963 219.935 75.9904H220.035V76.8544H220.869V69.3544H220.005V72.1224H219.932C219.786 71.8193 219.554 71.566 219.265 71.394C218.976 71.222 218.642 71.139 218.307 71.1554C216.886 71.1554 215.907 72.2834 215.907 74.0554C215.907 75.8274 216.889 76.9714 218.294 76.9714L218.295 76.9724ZM218.413 76.1964C217.329 76.1964 216.773 75.2444 216.773 74.0434C216.773 72.8424 217.315 71.9334 218.413 71.9334C219.468 71.9334 220.025 72.7834 220.025 74.0434C220.025 75.3034 219.452 76.1954 218.412 76.1954L218.413 76.1964ZM222.576 76.8554H223.44V73.2964C223.441 73.1148 223.479 72.9354 223.552 72.7692C223.625 72.603 223.732 72.4536 223.865 72.3301C223.998 72.2066 224.155 72.1117 224.326 72.0512C224.498 71.9907 224.679 71.9659 224.861 71.9784C225.038 71.9799 225.214 71.9996 225.388 72.0374V71.1574C225.288 71.1504 225.062 71.1434 224.934 71.1434C224.623 71.1327 224.317 71.2165 224.055 71.3839C223.794 71.5512 223.589 71.7941 223.469 72.0804H223.41V71.2304H222.576V76.8554ZM228.525 76.9734C228.889 76.9701 229.248 76.89 229.58 76.7383C229.911 76.5866 230.207 76.3667 230.447 76.093C230.688 75.8194 230.868 75.498 230.976 75.15C231.084 74.802 231.117 74.4351 231.074 74.0734C231.074 72.3164 230.049 71.1584 228.525 71.1584C227.001 71.1584 225.977 72.3164 225.977 74.0734C225.933 74.4345 225.967 74.8006 226.075 75.148C226.182 75.4953 226.362 75.8161 226.602 76.0895C226.842 76.3628 227.136 76.5826 227.467 76.7346C227.797 76.8865 228.156 76.9672 228.52 76.9714L228.525 76.9734ZM228.525 76.1974C227.368 76.1974 226.841 75.1974 226.841 74.0734C226.841 72.9494 227.368 71.9354 228.525 71.9354C229.682 71.9354 230.21 72.9454 230.21 74.0734C230.21 75.2014 229.682 76.1954 228.52 76.1954L228.525 76.1974ZM232.393 78.9644H233.257V75.9914H233.33C233.477 76.2972 233.711 76.5531 234.003 76.7276C234.294 76.9021 234.63 76.9875 234.97 76.9734C236.376 76.9734 237.358 75.8454 237.358 74.0584C237.358 72.2714 236.376 71.1584 234.958 71.1584C234.622 71.1422 234.288 71.2253 233.999 71.3972C233.71 71.5692 233.478 71.8224 233.332 72.1254H233.232V71.2314H232.397L232.393 78.9644ZM233.243 74.0444C233.243 72.7844 233.799 71.9344 234.854 71.9344C235.954 71.9344 236.494 72.8574 236.494 74.0444C236.494 75.2314 235.938 76.1974 234.854 76.1974C233.812 76.1954 233.242 75.3174 233.242 74.0424L233.243 74.0444ZM244.081 71.2314H242.82V70.6604C242.82 70.1044 243.054 69.8114 243.625 69.8114C243.79 69.81 243.954 69.8399 244.109 69.8994L244.358 69.1514C244.097 69.0464 243.818 68.9966 243.538 69.0054C243.336 68.9881 243.134 69.0127 242.943 69.0778C242.752 69.1428 242.576 69.2468 242.428 69.3832C242.279 69.5197 242.16 69.6855 242.079 69.8702C241.998 70.055 241.956 70.2545 241.956 70.4564V71.2314H241.048V71.9644H241.956V76.8554H242.82V71.9644H244.079L244.081 71.2314ZM245.293 76.8564H246.157V71.2314H245.293V76.8564ZM245.732 70.2944C245.846 70.2885 245.956 70.2492 246.049 70.1814C246.141 70.1135 246.211 70.0201 246.251 69.9126C246.291 69.8052 246.298 69.6884 246.272 69.5768C246.246 69.4651 246.188 69.3635 246.105 69.2846C246.022 69.2056 245.918 69.1527 245.805 69.1324C245.692 69.1121 245.576 69.1253 245.471 69.1704C245.366 69.2155 245.276 69.2905 245.213 69.3861C245.149 69.4818 245.116 69.5938 245.116 69.7084C245.12 69.8672 245.187 70.0178 245.302 70.1273C245.417 70.2368 245.571 70.2961 245.729 70.2924L245.732 70.2944ZM248.604 69.3574H247.74V76.8574H248.604V69.3574ZM252.545 76.9744C253.022 77.0159 253.5 76.8993 253.905 76.6426C254.31 76.3858 254.619 76.0031 254.785 75.5534L253.952 75.3194C253.844 75.5986 253.649 75.8352 253.395 75.9936C253.142 76.152 252.843 76.2236 252.546 76.1974C252.304 76.2062 252.063 76.1632 251.839 76.0713C251.615 75.9795 251.413 75.8409 251.247 75.6648C251.081 75.4887 250.954 75.2792 250.876 75.0503C250.797 74.8214 250.769 74.5783 250.792 74.3374H254.874V73.9714C254.874 71.8714 253.629 71.1584 252.458 71.1584C250.934 71.1584 249.924 72.3584 249.924 74.0874C249.881 74.454 249.917 74.8256 250.029 75.177C250.142 75.5285 250.329 75.8518 250.577 76.1251C250.825 76.3983 251.129 76.6153 251.468 76.7612C251.807 76.9072 252.173 76.9789 252.543 76.9714L252.545 76.9744ZM250.791 73.5904C250.797 73.1516 250.975 72.7327 251.286 72.4234C251.598 72.1142 252.018 71.939 252.457 71.9354C252.669 71.9328 252.88 71.9747 253.076 72.0586C253.271 72.1424 253.447 72.2663 253.592 72.4222C253.737 72.5781 253.847 72.7626 253.916 72.9638C253.986 73.165 254.012 73.3784 253.994 73.5904H250.791ZM259.952 73.4734C259.934 73.2718 259.959 73.0688 260.026 72.8779C260.093 72.6871 260.201 72.5129 260.341 72.3671C260.481 72.2213 260.651 72.1073 260.839 72.0328C261.028 71.9584 261.229 71.9251 261.432 71.9354C261.614 71.9254 261.797 71.9558 261.966 72.0245C262.136 72.0931 262.288 72.1984 262.412 72.3327C262.536 72.4669 262.629 72.627 262.685 72.8013C262.74 72.9757 262.756 73.1601 262.732 73.3414V76.8564H263.596V73.2824C263.596 71.8354 262.827 71.1584 261.677 71.1584C261.336 71.1234 260.992 71.1967 260.695 71.3677C260.398 71.5388 260.162 71.7989 260.022 72.1114H259.949V69.3574H259.085V76.8574H259.949L259.952 73.4734ZM267.538 76.9734C268.015 77.0149 268.493 76.8983 268.898 76.6416C269.303 76.3848 269.612 76.0021 269.779 75.5524L268.945 75.3184C268.837 75.5975 268.642 75.8342 268.388 75.9926C268.135 76.151 267.836 76.2225 267.539 76.1964C267.297 76.2051 267.056 76.1622 266.832 76.0703C266.608 75.9785 266.406 75.8399 266.24 75.6638C266.074 75.4877 265.947 75.2782 265.869 75.0493C265.79 74.8204 265.762 74.5773 265.784 74.3364H269.867V73.9704C269.867 71.8704 268.622 71.1574 267.451 71.1574C265.927 71.1574 264.917 72.3574 264.917 74.0864C264.873 74.4531 264.909 74.8247 265.022 75.1764C265.135 75.528 265.321 75.8514 265.57 76.1247C265.818 76.3981 266.122 76.6151 266.461 76.7612C266.8 76.9072 267.166 76.9789 267.536 76.9714L267.538 76.9734ZM265.784 73.5894C265.79 73.1506 265.968 72.7317 266.279 72.4224C266.591 72.1132 267.011 71.938 267.45 71.9344C267.662 71.9318 267.873 71.9737 268.069 72.0576C268.264 72.1414 268.44 72.2653 268.585 72.4212C268.73 72.5771 268.84 72.7616 268.909 72.9628C268.979 73.164 269.005 73.3774 268.987 73.5894H265.784ZM271.184 76.8554H272.047V73.2964C272.049 73.1148 272.087 72.9355 272.161 72.7694C272.234 72.6033 272.34 72.4539 272.473 72.3305C272.606 72.207 272.763 72.1121 272.935 72.0515C273.106 71.991 273.287 71.9661 273.469 71.9784C273.646 71.9798 273.823 71.9996 273.997 72.0374V71.1574C273.897 71.1504 273.671 71.1434 273.542 71.1434C273.231 71.1329 272.925 71.2168 272.664 71.3841C272.402 71.5515 272.198 71.7943 272.078 72.0804H272.019V71.2304H271.184V76.8554ZM277.208 76.9734C277.685 77.0147 278.163 76.898 278.568 76.6413C278.972 76.3845 279.281 76.0019 279.448 75.5524L278.614 75.3184C278.506 75.5975 278.311 75.8342 278.057 75.9926C277.804 76.151 277.505 76.2225 277.208 76.1964C276.966 76.2051 276.725 76.1622 276.501 76.0703C276.277 75.9785 276.075 75.8399 275.909 75.6638C275.743 75.4877 275.616 75.2782 275.538 75.0493C275.459 74.8204 275.431 74.5773 275.453 74.3364H279.536V73.9704C279.536 71.8704 278.291 71.1574 277.12 71.1574C275.596 71.1574 274.586 72.3574 274.586 74.0864C274.542 74.4528 274.578 74.8242 274.691 75.1756C274.803 75.527 274.99 75.8503 275.238 76.1236C275.485 76.3969 275.789 76.614 276.128 76.7602C276.466 76.9065 276.833 76.9785 277.201 76.9714L277.208 76.9734ZM275.453 73.5894C275.46 73.1506 275.638 72.7317 275.949 72.4224C276.261 72.1132 276.681 71.938 277.12 71.9344C277.332 71.9318 277.543 71.9737 277.739 72.0576C277.934 72.1414 278.11 72.2653 278.255 72.4212C278.4 72.5771 278.51 72.7616 278.579 72.9628C278.649 73.164 278.675 73.3774 278.657 73.5894H275.453Z" fill="white"/>
<path d="M478 1H4C2.34315 1 1 1.53364 1 2.19192V117.808C1 118.466 2.34315 119 4 119H478C479.657 119 481 118.466 481 117.808V2.19192C481 1.53364 479.657 1 478 1Z" stroke="#CD8A1A" stroke-dasharray="10 10"/>
<defs>
<linearGradient id="paint0_linear_857_6739" x1="6.74999" y1="1" x2="225.005" y2="295.887" gradientUnits="userSpaceOnUse">
<stop stop-color="#07162E"/>
<stop offset="1" stop-color="#23147A"/>
</linearGradient>
</defs>
</svg>
